<?xml version="1.0" encoding="UTF-8" standalone="no"?>
<!DOCTYPE svg PUBLIC "-//W3C//DTD SVG 1.1//EN"
 "http://www.w3.org/Graphics/SVG/1.1/DTD/svg11.dtd">
<!-- Generated by graphviz version 2.40.1 (0)
 -->
<!-- Title: %3 Pages: 1 -->
<svg width="1289pt" height="476pt"
 viewBox="0.00 0.00 1288.57 476.00" xmlns="http://www.w3.org/2000/svg" xmlns:xlink="http://www.w3.org/1999/xlink">
<g id="graph0" class="graph" transform="scale(1 1) rotate(0) translate(4 472)">
<title>%3</title>
<polygon fill="#ffffff" stroke="transparent" points="-4,4 -4,-472 1284.5748,-472 1284.5748,4 -4,4"/>
<!-- [root] aws_instance.ansible&#45;beats -->
<g id="node1" class="node">
<title>[root] aws_instance.ansible&#45;beats</title>
<polygon fill="none" stroke="#000000" points="777.5,-324 616.5,-324 616.5,-288 777.5,-288 777.5,-324"/>
<text text-anchor="middle" x="697" y="-302.3" font-family="Times,serif" font-size="14.00" fill="#000000">aws_instance.ansible&#45;beats</text>
</g>
<!-- [root] aws_instance.ansible&#45;elastic -->
<g id="node2" class="node">
<title>[root] aws_instance.ansible&#45;elastic</title>
<polygon fill="none" stroke="#000000" points="682,-108 514,-108 514,-72 682,-72 682,-108"/>
<text text-anchor="middle" x="598" y="-86.3" font-family="Times,serif" font-size="14.00" fill="#000000">aws_instance.ansible&#45;elastic</text>
</g>
<!-- [root] aws_instance.ansible&#45;beats&#45;&gt;[root] aws_instance.ansible&#45;elastic -->
<g id="edge1" class="edge">
<title>[root] aws_instance.ansible&#45;beats&#45;&gt;[root] aws_instance.ansible&#45;elastic</title>
<path fill="none" stroke="#000000" d="M643.1638,-287.9395C626.7646,-279.6531 610.5611,-268.0062 601,-252 576.292,-210.6366 583.3037,-152.1035 590.6504,-117.8925"/>
<polygon fill="#000000" stroke="#000000" points="594.0715,-118.6326 592.9064,-108.102 587.2502,-117.0607 594.0715,-118.6326"/>
</g>
<!-- [root] aws_instance.ansible&#45;kibana -->
<g id="node3" class="node">
<title>[root] aws_instance.ansible&#45;kibana</title>
<polygon fill="none" stroke="#000000" points="780,-252 610,-252 610,-216 780,-216 780,-252"/>
<text text-anchor="middle" x="695" y="-230.3" font-family="Times,serif" font-size="14.00" fill="#000000">aws_instance.ansible&#45;kibana</text>
</g>
<!-- [root] aws_instance.ansible&#45;beats&#45;&gt;[root] aws_instance.ansible&#45;kibana -->
<g id="edge2" class="edge">
<title>[root] aws_instance.ansible&#45;beats&#45;&gt;[root] aws_instance.ansible&#45;kibana</title>
<path fill="none" stroke="#000000" d="M696.4953,-287.8314C696.2814,-280.131 696.0271,-270.9743 695.7894,-262.4166"/>
<polygon fill="#000000" stroke="#000000" points="699.2879,-262.3122 695.5115,-252.4133 692.2906,-262.5066 699.2879,-262.3122"/>
</g>
<!-- [root] provider.aws -->
<g id="node5" class="node">
<title>[root] provider.aws</title>
<polygon fill="none" stroke="#000000" points="1166,-36 1088.581,-18 1166,0 1243.419,-18 1166,-36"/>
<text text-anchor="middle" x="1166" y="-14.3" font-family="Times,serif" font-size="14.00" fill="#000000">provider.aws</text>
</g>
<!-- [root] aws_instance.ansible&#45;beats&#45;&gt;[root] provider.aws -->
<g id="edge3" class="edge">
<title>[root] aws_instance.ansible&#45;beats&#45;&gt;[root] provider.aws</title>
<path fill="none" stroke="#000000" d="M777.6371,-295.378C821.3929,-287.4567 875.4782,-274.0731 920,-252 1010.8587,-206.954 1026.3333,-180.737 1097,-108 1117.016,-87.3976 1136.6281,-61.047 1149.7956,-42.1914"/>
<polygon fill="#000000" stroke="#000000" points="1152.7516,-44.07 1155.5428,-33.8495 1146.9872,-40.0986 1152.7516,-44.07"/>
</g>
<!-- [root] var.ami_id -->
<g id="node6" class="node">
<title>[root] var.ami_id</title>
<polygon fill="none" stroke="#000000" points="855,-36 787,-36 787,0 861,0 861,-30 855,-36"/>
<polyline fill="none" stroke="#000000" points="855,-36 855,-30 "/>
<polyline fill="none" stroke="#000000" points="861,-30 855,-30 "/>
<text text-anchor="middle" x="824" y="-14.3" font-family="Times,serif" font-size="14.00" fill="#000000">var.ami_id</text>
</g>
<!-- [root] aws_instance.ansible&#45;beats&#45;&gt;[root] var.ami_id -->
<g id="edge5" class="edge">
<title>[root] aws_instance.ansible&#45;beats&#45;&gt;[root] var.ami_id</title>
<path fill="none" stroke="#000000" d="M767.6955,-287.9632C820.5357,-270.2325 888.665,-237.2761 919,-180 945.246,-130.4445 893.3449,-74.3534 856.4553,-42.8767"/>
<polygon fill="#000000" stroke="#000000" points="858.3118,-39.8688 848.3833,-36.1707 853.8387,-45.2531 858.3118,-39.8688"/>
</g>
<!-- [root] var.beats_instance_type -->
<g id="node7" class="node">
<title>[root] var.beats_instance_type</title>
<polygon fill="none" stroke="#000000" points="433.5,-252 294.5,-252 294.5,-216 439.5,-216 439.5,-246 433.5,-252"/>
<polyline fill="none" stroke="#000000" points="433.5,-252 433.5,-246 "/>
<polyline fill="none" stroke="#000000" points="439.5,-246 433.5,-246 "/>
<text text-anchor="middle" x="367" y="-230.3" font-family="Times,serif" font-size="14.00" fill="#000000">var.beats_instance_type</text>
</g>
<!-- [root] aws_instance.ansible&#45;beats&#45;&gt;[root] var.beats_instance_type -->
<g id="edge6" class="edge">
<title>[root] aws_instance.ansible&#45;beats&#45;&gt;[root] var.beats_instance_type</title>
<path fill="none" stroke="#000000" d="M616.2729,-288.3868C565.648,-277.3414 500.555,-263.1393 449.582,-252.0179"/>
<polygon fill="#000000" stroke="#000000" points="450.1005,-248.5487 439.5842,-249.8365 448.6082,-255.3879 450.1005,-248.5487"/>
</g>
<!-- [root] var.key_name -->
<g id="node9" class="node">
<title>[root] var.key_name</title>
<polygon fill="none" stroke="#000000" points="1016,-36 930,-36 930,0 1022,0 1022,-30 1016,-36"/>
<polyline fill="none" stroke="#000000" points="1016,-36 1016,-30 "/>
<polyline fill="none" stroke="#000000" points="1022,-30 1016,-30 "/>
<text text-anchor="middle" x="976" y="-14.3" font-family="Times,serif" font-size="14.00" fill="#000000">var.key_name</text>
</g>
<!-- [root] aws_instance.ansible&#45;beats&#45;&gt;[root] var.key_name -->
<g id="edge7" class="edge">
<title>[root] aws_instance.ansible&#45;beats&#45;&gt;[root] var.key_name</title>
<path fill="none" stroke="#000000" d="M777.6599,-293.0635C812.0198,-284.986 851.3802,-272.1453 883,-252 947.8712,-210.6699 962.5986,-183.1494 979,-108 983.4378,-87.6663 982.4489,-64.1426 980.4771,-46.2453"/>
<polygon fill="#000000" stroke="#000000" points="983.9294,-45.6469 979.1994,-36.1665 976.985,-46.5273 983.9294,-45.6469"/>
</g>
<!-- [root] var.security_groups -->
<g id="node12" class="node">
<title>[root] var.security_groups</title>
<polygon fill="none" stroke="#000000" points="541,-36 425,-36 425,0 547,0 547,-30 541,-36"/>
<polyline fill="none" stroke="#000000" points="541,-36 541,-30 "/>
<polyline fill="none" stroke="#000000" points="547,-30 541,-30 "/>
<text text-anchor="middle" x="486" y="-14.3" font-family="Times,serif" font-size="14.00" fill="#000000">var.security_groups</text>
</g>
<!-- [root] aws_instance.ansible&#45;beats&#45;&gt;[root] var.security_groups -->
<g id="edge8" class="edge">
<title>[root] aws_instance.ansible&#45;beats&#45;&gt;[root] var.security_groups</title>
<path fill="none" stroke="#000000" d="M657.461,-287.8931C635.6254,-277.6969 608.1188,-264.5287 584,-252 555.0386,-236.9559 550.4562,-227.7262 520,-216 452.3833,-189.9663 424.6832,-214.5575 361,-180 320.6679,-158.1139 304.8504,-150.2734 287,-108 280.776,-93.2602 277.28,-84.7091 287,-72 295.0997,-61.4095 361.1652,-44.8576 414.9879,-32.8693"/>
<polygon fill="#000000" stroke="#000000" points="415.8679,-36.2594 424.8786,-30.6864 414.3592,-29.4239 415.8679,-36.2594"/>
</g>
<!-- [root] provisioner.local&#45;exec -->
<g id="node13" class="node">
<title>[root] provisioner.local&#45;exec</title>
<ellipse fill="none" stroke="#000000" cx="280" cy="-18" rx="109.6807" ry="18"/>
<text text-anchor="middle" x="280" y="-14.3" font-family="Times,serif" font-size="14.00" fill="#000000">[root] provisioner.local&#45;exec</text>
</g>
<!-- [root] aws_instance.ansible&#45;beats&#45;&gt;[root] provisioner.local&#45;exec -->
<g id="edge4" class="edge">
<title>[root] aws_instance.ansible&#45;beats&#45;&gt;[root] provisioner.local&#45;exec</title>
<path fill="none" stroke="#000000" d="M628.4194,-287.9767C595.2224,-278.5223 555.0585,-265.998 520,-252 486.7735,-238.7335 481.5446,-228.4403 448,-216 386.551,-193.2111 354.131,-223.3758 305,-180 267.5256,-146.9154 269.7082,-82.9594 274.7689,-46.0755"/>
<polygon fill="#000000" stroke="#000000" points="278.2576,-46.4154 276.3163,-35.9999 271.3387,-45.3527 278.2576,-46.4154"/>
</g>
<!-- [root] aws_instance.ansible&#45;elastic&#45;&gt;[root] provider.aws -->
<g id="edge9" class="edge">
<title>[root] aws_instance.ansible&#45;elastic&#45;&gt;[root] provider.aws</title>
<path fill="none" stroke="#000000" d="M682.2498,-79.7076C769.5252,-68.9953 909.8477,-51.6311 1031,-36 1055.8196,-32.7978 1083.1916,-29.1667 1106.7632,-26.0087"/>
<polygon fill="#000000" stroke="#000000" points="1107.5119,-29.4397 1116.9575,-24.6408 1106.5809,-22.5019 1107.5119,-29.4397"/>
</g>
<!-- [root] aws_instance.ansible&#45;elastic&#45;&gt;[root] var.ami_id -->
<g id="edge11" class="edge">
<title>[root] aws_instance.ansible&#45;elastic&#45;&gt;[root] var.ami_id</title>
<path fill="none" stroke="#000000" d="M654.7376,-71.9243C692.5048,-59.8923 741.5294,-44.2738 777.0898,-32.9449"/>
<polygon fill="#000000" stroke="#000000" points="778.2763,-36.2402 786.742,-29.8698 776.1514,-29.5705 778.2763,-36.2402"/>
</g>
<!-- [root] var.elastic_instance_type -->
<g id="node8" class="node">
<title>[root] var.elastic_instance_type</title>
<polygon fill="none" stroke="#000000" points="146,-36 0,-36 0,0 152,0 152,-30 146,-36"/>
<polyline fill="none" stroke="#000000" points="146,-36 146,-30 "/>
<polyline fill="none" stroke="#000000" points="152,-30 146,-30 "/>
<text text-anchor="middle" x="76" y="-14.3" font-family="Times,serif" font-size="14.00" fill="#000000">var.elastic_instance_type</text>
</g>
<!-- [root] aws_instance.ansible&#45;elastic&#45;&gt;[root] var.elastic_instance_type -->
<g id="edge12" class="edge">
<title>[root] aws_instance.ansible&#45;elastic&#45;&gt;[root] var.elastic_instance_type</title>
<path fill="none" stroke="#000000" d="M513.882,-78.2982C497.9843,-76.1522 481.4871,-73.9698 466,-72 333.7678,-55.1817 297.3769,-58.0148 162.2928,-36.1391"/>
<polygon fill="#000000" stroke="#000000" points="162.8273,-32.6801 152.3935,-34.5208 161.6978,-39.5884 162.8273,-32.6801"/>
</g>
<!-- [root] aws_instance.ansible&#45;elastic&#45;&gt;[root] var.key_name -->
<g id="edge13" class="edge">
<title>[root] aws_instance.ansible&#45;elastic&#45;&gt;[root] var.key_name</title>
<path fill="none" stroke="#000000" d="M682.3601,-73.9314C754.7061,-60.1512 856.9218,-40.6816 919.7035,-28.7231"/>
<polygon fill="#000000" stroke="#000000" points="920.6416,-32.1075 929.8101,-26.7981 919.3318,-25.2311 920.6416,-32.1075"/>
</g>
<!-- [root] aws_instance.ansible&#45;elastic&#45;&gt;[root] var.security_groups -->
<g id="edge14" class="edge">
<title>[root] aws_instance.ansible&#45;elastic&#45;&gt;[root] var.security_groups</title>
<path fill="none" stroke="#000000" d="M569.7377,-71.8314C555.5448,-62.7074 538.1718,-51.539 522.9364,-41.7449"/>
<polygon fill="#000000" stroke="#000000" points="524.5578,-38.6263 514.2533,-36.1628 520.7724,-44.5146 524.5578,-38.6263"/>
</g>
<!-- [root] aws_instance.ansible&#45;elastic&#45;&gt;[root] provisioner.local&#45;exec -->
<g id="edge10" class="edge">
<title>[root] aws_instance.ansible&#45;elastic&#45;&gt;[root] provisioner.local&#45;exec</title>
<path fill="none" stroke="#000000" d="M518.1656,-71.9243C467.9921,-60.5643 403.6985,-46.0072 354.5612,-34.8818"/>
<polygon fill="#000000" stroke="#000000" points="355.1569,-31.4281 344.6308,-32.6334 353.6111,-38.2553 355.1569,-31.4281"/>
</g>
<!-- [root] aws_instance.ansible&#45;kibana&#45;&gt;[root] aws_instance.ansible&#45;elastic -->
<g id="edge15" class="edge">
<title>[root] aws_instance.ansible&#45;kibana&#45;&gt;[root] aws_instance.ansible&#45;elastic</title>
<path fill="none" stroke="#000000" d="M685.4102,-215.9167C675.3391,-197.3821 658.6755,-167.963 642,-144 635.5091,-134.6725 627.8549,-124.9168 620.7661,-116.304"/>
<polygon fill="#000000" stroke="#000000" points="623.298,-113.8757 614.1992,-108.4479 617.9272,-118.3651 623.298,-113.8757"/>
</g>
<!-- [root] aws_instance.ansible&#45;logstash -->
<g id="node4" class="node">
<title>[root] aws_instance.ansible&#45;logstash</title>
<polygon fill="none" stroke="#000000" points="910,-180 732,-180 732,-144 910,-144 910,-180"/>
<text text-anchor="middle" x="821" y="-158.3" font-family="Times,serif" font-size="14.00" fill="#000000">aws_instance.ansible&#45;logstash</text>
</g>
<!-- [root] aws_instance.ansible&#45;kibana&#45;&gt;[root] aws_instance.ansible&#45;logstash -->
<g id="edge16" class="edge">
<title>[root] aws_instance.ansible&#45;kibana&#45;&gt;[root] aws_instance.ansible&#45;logstash</title>
<path fill="none" stroke="#000000" d="M720.8427,-215.8314C736.2023,-206.5368 756.0461,-195.1208 774.0497,-185.1971"/>
<polygon fill="#000000" stroke="#000000" points="776.166,-188.0292 783.2632,-180.1628 772.8095,-181.8864 776.166,-188.0292"/>
</g>
<!-- [root] aws_instance.ansible&#45;kibana&#45;&gt;[root] provider.aws -->
<g id="edge17" class="edge">
<title>[root] aws_instance.ansible&#45;kibana&#45;&gt;[root] provider.aws</title>
<path fill="none" stroke="#000000" d="M780.0328,-224.7998C830.0054,-217.1996 893.474,-203.6657 946,-180 1026.344,-143.8008 1105.9413,-74.8216 1143.5606,-39.706"/>
<polygon fill="#000000" stroke="#000000" points="1146.0621,-42.1578 1150.9362,-32.7507 1141.2596,-37.0651 1146.0621,-42.1578"/>
</g>
<!-- [root] aws_instance.ansible&#45;kibana&#45;&gt;[root] var.ami_id -->
<g id="edge19" class="edge">
<title>[root] aws_instance.ansible&#45;kibana&#45;&gt;[root] var.ami_id</title>
<path fill="none" stroke="#000000" d="M698.5195,-215.9755C702.6483,-197.2299 710.5553,-167.4066 723,-144 743.4264,-105.5808 776.2083,-67.434 798.8564,-43.3505"/>
<polygon fill="#000000" stroke="#000000" points="801.4568,-45.6952 805.8252,-36.0428 796.391,-40.8643 801.4568,-45.6952"/>
</g>
<!-- [root] aws_instance.ansible&#45;kibana&#45;&gt;[root] var.key_name -->
<g id="edge20" class="edge">
<title>[root] aws_instance.ansible&#45;kibana&#45;&gt;[root] var.key_name</title>
<path fill="none" stroke="#000000" d="M780.2562,-222.0489C834.5629,-212.8493 898.4408,-198.5667 919,-180 957.5018,-145.2297 969.9978,-82.8853 974.0528,-46.5134"/>
<polygon fill="#000000" stroke="#000000" points="977.5791,-46.4095 975.0596,-36.1186 970.6117,-45.7346 977.5791,-46.4095"/>
</g>
<!-- [root] var.kibana_instance_type -->
<g id="node10" class="node">
<title>[root] var.kibana_instance_type</title>
<polygon fill="none" stroke="#000000" points="517.5,-180 370.5,-180 370.5,-144 523.5,-144 523.5,-174 517.5,-180"/>
<polyline fill="none" stroke="#000000" points="517.5,-180 517.5,-174 "/>
<polyline fill="none" stroke="#000000" points="523.5,-174 517.5,-174 "/>
<text text-anchor="middle" x="447" y="-158.3" font-family="Times,serif" font-size="14.00" fill="#000000">var.kibana_instance_type</text>
</g>
<!-- [root] aws_instance.ansible&#45;kibana&#45;&gt;[root] var.kibana_instance_type -->
<g id="edge21" class="edge">
<title>[root] aws_instance.ansible&#45;kibana&#45;&gt;[root] var.kibana_instance_type</title>
<path fill="none" stroke="#000000" d="M632.7392,-215.9243C598.2466,-205.9103 555.197,-193.412 519.2301,-182.97"/>
<polygon fill="#000000" stroke="#000000" points="519.8657,-179.5101 509.2864,-180.0831 517.914,-186.2325 519.8657,-179.5101"/>
</g>
<!-- [root] aws_instance.ansible&#45;kibana&#45;&gt;[root] var.security_groups -->
<g id="edge22" class="edge">
<title>[root] aws_instance.ansible&#45;kibana&#45;&gt;[root] var.security_groups</title>
<path fill="none" stroke="#000000" d="M676.8182,-215.6203C651.4972,-190.0823 608.2244,-146.674 604,-144 564.4404,-118.9593 535.6967,-143.3513 505,-108 490.335,-91.1113 486.0296,-65.7623 485.1377,-46.2661"/>
<polygon fill="#000000" stroke="#000000" points="488.6346,-46.0611 484.9492,-36.1279 481.6358,-46.1912 488.6346,-46.0611"/>
</g>
<!-- [root] aws_instance.ansible&#45;kibana&#45;&gt;[root] provisioner.local&#45;exec -->
<g id="edge18" class="edge">
<title>[root] aws_instance.ansible&#45;kibana&#45;&gt;[root] provisioner.local&#45;exec</title>
<path fill="none" stroke="#000000" d="M665.4254,-215.9891C626.2709,-192.4419 559.0323,-153.1143 532,-144 479.8551,-126.4187 324.5607,-148.2168 287,-108 271.8572,-91.7863 271.3208,-65.9846 273.8674,-46.1562"/>
<polygon fill="#000000" stroke="#000000" points="277.347,-46.5621 275.4724,-36.1344 270.435,-45.4551 277.347,-46.5621"/>
</g>
<!-- [root] aws_instance.ansible&#45;logstash&#45;&gt;[root] aws_instance.ansible&#45;beats -->
<g id="edge23" class="edge">
<title>[root] aws_instance.ansible&#45;logstash&#45;&gt;[root] aws_instance.ansible&#45;beats</title>
<path fill="none" stroke="#000000" d="M818.3532,-180.0375C814.6883,-199.6193 806.4345,-230.9111 789,-252 778.6422,-264.5288 764.5719,-274.8143 750.5525,-282.9219"/>
<polygon fill="#000000" stroke="#000000" points="748.4793,-280.0666 741.3866,-287.937 751.8393,-286.2075 748.4793,-280.0666"/>
</g>
<!-- [root] aws_instance.ansible&#45;logstash&#45;&gt;[root] aws_instance.ansible&#45;elastic -->
<g id="edge24" class="edge">
<title>[root] aws_instance.ansible&#45;logstash&#45;&gt;[root] aws_instance.ansible&#45;elastic</title>
<path fill="none" stroke="#000000" d="M765.0155,-143.9243C734.265,-133.9959 695.9512,-121.6255 663.7795,-111.2382"/>
<polygon fill="#000000" stroke="#000000" points="664.5992,-107.825 654.0075,-108.0831 662.4484,-114.4864 664.5992,-107.825"/>
</g>
<!-- [root] aws_instance.ansible&#45;logstash&#45;&gt;[root] aws_instance.ansible&#45;kibana -->
<g id="edge25" class="edge">
<title>[root] aws_instance.ansible&#45;logstash&#45;&gt;[root] aws_instance.ansible&#45;kibana</title>
<path fill="none" stroke="#000000" d="M795.1669,-180.1628C779.8091,-189.4565 759.9659,-200.8724 741.9615,-210.7967"/>
<polygon fill="#000000" stroke="#000000" points="739.8447,-207.9649 732.7475,-215.8314 743.2012,-214.1077 739.8447,-207.9649"/>
</g>
<!-- [root] aws_instance.ansible&#45;logstash&#45;&gt;[root] provider.aws -->
<g id="edge26" class="edge">
<title>[root] aws_instance.ansible&#45;logstash&#45;&gt;[root] provider.aws</title>
<path fill="none" stroke="#000000" d="M864.3452,-143.9081C932.6846,-115.3838 1064.3045,-60.4468 1128.6891,-33.5732"/>
<polygon fill="#000000" stroke="#000000" points="1130.1752,-36.7457 1138.0555,-29.6638 1127.4789,-30.2858 1130.1752,-36.7457"/>
</g>
<!-- [root] aws_instance.ansible&#45;logstash&#45;&gt;[root] var.ami_id -->
<g id="edge28" class="edge">
<title>[root] aws_instance.ansible&#45;logstash&#45;&gt;[root] var.ami_id</title>
<path fill="none" stroke="#000000" d="M821.38,-143.7623C821.8916,-119.201 822.8073,-75.2474 823.4093,-46.3541"/>
<polygon fill="#000000" stroke="#000000" points="826.914,-46.1604 823.6231,-36.0896 819.9155,-46.0145 826.914,-46.1604"/>
</g>
<!-- [root] aws_instance.ansible&#45;logstash&#45;&gt;[root] var.key_name -->
<g id="edge29" class="edge">
<title>[root] aws_instance.ansible&#45;logstash&#45;&gt;[root] var.key_name</title>
<path fill="none" stroke="#000000" d="M831.1302,-143.7677C842.5905,-124.3033 862.7187,-93.3806 886,-72 898.7813,-60.2622 914.5083,-49.7844 929.2205,-41.2536"/>
<polygon fill="#000000" stroke="#000000" points="931.211,-44.1498 938.2143,-36.1997 927.7818,-38.0473 931.211,-44.1498"/>
</g>
<!-- [root] var.logstash_instance_type -->
<g id="node11" class="node">
<title>[root] var.logstash_instance_type</title>
<polygon fill="none" stroke="#000000" points="451.5,-108 296.5,-108 296.5,-72 457.5,-72 457.5,-102 451.5,-108"/>
<polyline fill="none" stroke="#000000" points="451.5,-108 451.5,-102 "/>
<polyline fill="none" stroke="#000000" points="457.5,-102 451.5,-102 "/>
<text text-anchor="middle" x="377" y="-86.3" font-family="Times,serif" font-size="14.00" fill="#000000">var.logstash_instance_type</text>
</g>
<!-- [root] aws_instance.ansible&#45;logstash&#45;&gt;[root] var.logstash_instance_type -->
<g id="edge30" class="edge">
<title>[root] aws_instance.ansible&#45;logstash&#45;&gt;[root] var.logstash_instance_type</title>
<path fill="none" stroke="#000000" d="M731.9507,-147.5596C655.2713,-135.1251 545.0889,-117.2577 467.8818,-104.7376"/>
<polygon fill="#000000" stroke="#000000" points="468.1192,-101.2304 457.6879,-103.0845 466.9986,-108.1402 468.1192,-101.2304"/>
</g>
<!-- [root] aws_instance.ansible&#45;logstash&#45;&gt;[root] var.security_groups -->
<g id="edge31" class="edge">
<title>[root] aws_instance.ansible&#45;logstash&#45;&gt;[root] var.security_groups</title>
<path fill="none" stroke="#000000" d="M814.2682,-143.9852C805.5229,-123.1958 788.2037,-89.6158 762,-72 729.2207,-49.9636 627.6324,-34.2123 557.3031,-25.6035"/>
<polygon fill="#000000" stroke="#000000" points="557.5116,-22.1035 547.1654,-24.3853 556.6763,-29.0535 557.5116,-22.1035"/>
</g>
<!-- [root] aws_instance.ansible&#45;logstash&#45;&gt;[root] provisioner.local&#45;exec -->
<g id="edge27" class="edge">
<title>[root] aws_instance.ansible&#45;logstash&#45;&gt;[root] provisioner.local&#45;exec</title>
<path fill="none" stroke="#000000" d="M801.1607,-143.662C777.0768,-122.5618 734.2875,-88.683 691,-72 575.9814,-27.6719 538.2108,-52.0867 416,-36 403.0164,-34.291 389.3361,-32.4857 375.8575,-30.7044"/>
<polygon fill="#000000" stroke="#000000" points="375.977,-27.1898 365.6045,-29.3488 375.0595,-34.1294 375.977,-27.1898"/>
</g>
<!-- [root] meta.count&#45;boundary (EachMode fixup) -->
<g id="node14" class="node">
<title>[root] meta.count&#45;boundary (EachMode fixup)</title>
<ellipse fill="none" stroke="#000000" cx="368" cy="-378" rx="176.2688" ry="18"/>
<text text-anchor="middle" x="368" y="-374.3" font-family="Times,serif" font-size="14.00" fill="#000000">[root] meta.count&#45;boundary (EachMode fixup)</text>
</g>
<!-- [root] meta.count&#45;boundary (EachMode fixup)&#45;&gt;[root] aws_instance.ansible&#45;beats -->
<g id="edge32" class="edge">
<title>[root] meta.count&#45;boundary (EachMode fixup)&#45;&gt;[root] aws_instance.ansible&#45;beats</title>
<path fill="none" stroke="#000000" d="M442.6552,-361.6621C491.2788,-351.021 555.0097,-337.0739 606.5121,-325.8028"/>
<polygon fill="#000000" stroke="#000000" points="607.2897,-329.2156 616.3102,-323.6586 605.7932,-322.3774 607.2897,-329.2156"/>
</g>
<!-- [root] meta.count&#45;boundary (EachMode fixup)&#45;&gt;[root] aws_instance.ansible&#45;elastic -->
<g id="edge33" class="edge">
<title>[root] meta.count&#45;boundary (EachMode fixup)&#45;&gt;[root] aws_instance.ansible&#45;elastic</title>
<path fill="none" stroke="#000000" d="M326.0744,-360.5077C310.1836,-351.8126 293.4263,-339.742 283,-324 256.3318,-283.7353 251.4897,-260.1791 271,-216 290.1913,-172.5433 307.7913,-165.7994 350,-144 376.7398,-130.1898 445.5524,-115.7429 503.9259,-105.2708"/>
<polygon fill="#000000" stroke="#000000" points="504.7068,-108.687 513.9418,-103.4941 503.4842,-101.7946 504.7068,-108.687"/>
</g>
<!-- [root] meta.count&#45;boundary (EachMode fixup)&#45;&gt;[root] aws_instance.ansible&#45;kibana -->
<g id="edge34" class="edge">
<title>[root] meta.count&#45;boundary (EachMode fixup)&#45;&gt;[root] aws_instance.ansible&#45;kibana</title>
<path fill="none" stroke="#000000" d="M408.0966,-360.3428C467.7523,-334.0724 579.8093,-284.7262 644.822,-256.0967"/>
<polygon fill="#000000" stroke="#000000" points="646.3195,-259.2617 654.0609,-252.0282 643.4983,-252.8553 646.3195,-259.2617"/>
</g>
<!-- [root] meta.count&#45;boundary (EachMode fixup)&#45;&gt;[root] aws_instance.ansible&#45;logstash -->
<g id="edge35" class="edge">
<title>[root] meta.count&#45;boundary (EachMode fixup)&#45;&gt;[root] aws_instance.ansible&#45;logstash</title>
<path fill="none" stroke="#000000" d="M491.54,-365.1683C610.5905,-352.3246 774.406,-333.1901 786,-324 825.7125,-292.5214 827.3492,-227.6836 824.5036,-190.2836"/>
<polygon fill="#000000" stroke="#000000" points="827.9653,-189.7052 823.5623,-180.0686 820.9948,-190.3476 827.9653,-189.7052"/>
</g>
<!-- [root] meta.count&#45;boundary (EachMode fixup)&#45;&gt;[root] provider.aws -->
<g id="edge36" class="edge">
<title>[root] meta.count&#45;boundary (EachMode fixup)&#45;&gt;[root] provider.aws</title>
<path fill="none" stroke="#000000" d="M495.4207,-365.5153C645.9076,-350.6963 878.4313,-327.5349 898,-324 1053.5178,-295.907 1242,-392.0348 1242,-234 1242,-234 1242,-234 1242,-162 1242,-114.6065 1209.4033,-67.5276 1186.9056,-40.6785"/>
<polygon fill="#000000" stroke="#000000" points="1189.4779,-38.302 1180.295,-33.0175 1184.1781,-42.8751 1189.4779,-38.302"/>
</g>
<!-- [root] meta.count&#45;boundary (EachMode fixup)&#45;&gt;[root] var.ami_id -->
<g id="edge38" class="edge">
<title>[root] meta.count&#45;boundary (EachMode fixup)&#45;&gt;[root] var.ami_id</title>
<path fill="none" stroke="#000000" d="M495.6453,-365.5838C616.5116,-353.3287 783.7598,-334.8904 813,-324 819.7144,-321.4993 915.9628,-257.9192 920,-252 965.1027,-185.8724 963.2952,-135.0642 914,-72 902.6493,-57.4789 886.218,-46.0026 870.493,-37.4319"/>
<polygon fill="#000000" stroke="#000000" points="871.8514,-34.1945 861.3596,-32.7204 868.6422,-40.4155 871.8514,-34.1945"/>
</g>
<!-- [root] meta.count&#45;boundary (EachMode fixup)&#45;&gt;[root] var.beats_instance_type -->
<g id="edge39" class="edge">
<title>[root] meta.count&#45;boundary (EachMode fixup)&#45;&gt;[root] var.beats_instance_type</title>
<path fill="none" stroke="#000000" d="M367.8733,-359.7623C367.7028,-335.201 367.3976,-291.2474 367.1969,-262.3541"/>
<polygon fill="#000000" stroke="#000000" points="370.6951,-262.065 367.1256,-252.0896 363.6952,-262.1137 370.6951,-262.065"/>
</g>
<!-- [root] meta.count&#45;boundary (EachMode fixup)&#45;&gt;[root] var.elastic_instance_type -->
<g id="edge40" class="edge">
<title>[root] meta.count&#45;boundary (EachMode fixup)&#45;&gt;[root] var.elastic_instance_type</title>
<path fill="none" stroke="#000000" d="M252.571,-364.4025C195.2742,-355.5717 133.7298,-342.2689 112,-324 79.0243,-296.2763 76,-277.0813 76,-234 76,-234 76,-234 76,-162 76,-121.876 76,-75.4631 76,-46.4177"/>
<polygon fill="#000000" stroke="#000000" points="79.5001,-46.1853 76,-36.1854 72.5001,-46.1854 79.5001,-46.1853"/>
</g>
<!-- [root] meta.count&#45;boundary (EachMode fixup)&#45;&gt;[root] var.key_name -->
<g id="edge41" class="edge">
<title>[root] meta.count&#45;boundary (EachMode fixup)&#45;&gt;[root] var.key_name</title>
<path fill="none" stroke="#000000" d="M495.8974,-365.5868C634.297,-351.883 837.5847,-330.852 854,-324 900.9525,-304.4014 914.5422,-294.1758 943,-252 985.7912,-188.5814 983.7522,-93.3949 979.4886,-46.3704"/>
<polygon fill="#000000" stroke="#000000" points="982.9584,-45.8939 978.4719,-36.2959 975.9938,-46.5969 982.9584,-45.8939"/>
</g>
<!-- [root] meta.count&#45;boundary (EachMode fixup)&#45;&gt;[root] var.kibana_instance_type -->
<g id="edge42" class="edge">
<title>[root] meta.count&#45;boundary (EachMode fixup)&#45;&gt;[root] var.kibana_instance_type</title>
<path fill="none" stroke="#000000" d="M346.1895,-359.9835C311.3078,-328.9721 250.2619,-264.1966 285,-216 294.7424,-202.4832 327.1615,-190.4256 360.4653,-181.1517"/>
<polygon fill="#000000" stroke="#000000" points="361.5905,-184.4733 370.3327,-178.488 359.7661,-177.7152 361.5905,-184.4733"/>
</g>
<!-- [root] meta.count&#45;boundary (EachMode fixup)&#45;&gt;[root] var.logstash_instance_type -->
<g id="edge43" class="edge">
<title>[root] meta.count&#45;boundary (EachMode fixup)&#45;&gt;[root] var.logstash_instance_type</title>
<path fill="none" stroke="#000000" d="M296.761,-361.5152C261.4947,-351.7638 224.2831,-338.5027 214,-324 186.2366,-284.844 195.0338,-260.094 214,-216 234.8035,-167.6346 285.5744,-133.2308 324.9723,-112.7235"/>
<polygon fill="#000000" stroke="#000000" points="326.859,-115.6918 334.2072,-108.0593 323.7031,-109.4435 326.859,-115.6918"/>
</g>
<!-- [root] meta.count&#45;boundary (EachMode fixup)&#45;&gt;[root] var.security_groups -->
<g id="edge44" class="edge">
<title>[root] meta.count&#45;boundary (EachMode fixup)&#45;&gt;[root] var.security_groups</title>
<path fill="none" stroke="#000000" d="M285.2474,-362.1002C246.1563,-352.7388 205.5377,-339.6612 194,-324 187.6699,-315.4075 188.9948,-247.0084 197,-216 215.3008,-145.1108 218.1687,-115.5784 277,-72 288.3635,-63.5827 358.9813,-46.3191 415.0306,-33.567"/>
<polygon fill="#000000" stroke="#000000" points="415.972,-36.9425 424.9529,-31.3217 414.427,-30.1151 415.972,-36.9425"/>
</g>
<!-- [root] meta.count&#45;boundary (EachMode fixup)&#45;&gt;[root] provisioner.local&#45;exec -->
<g id="edge37" class="edge">
<title>[root] meta.count&#45;boundary (EachMode fixup)&#45;&gt;[root] provisioner.local&#45;exec</title>
<path fill="none" stroke="#000000" d="M260.9233,-363.6437C209.905,-354.7194 156.1023,-341.5673 138,-324 108.2916,-295.1696 114,-275.3978 114,-234 114,-234 114,-234 114,-162 114,-101.6065 177.4714,-60.8422 225.919,-38.5236"/>
<polygon fill="#000000" stroke="#000000" points="227.3714,-41.7083 235.078,-34.4379 224.5196,-35.3155 227.3714,-41.7083"/>
</g>
<!-- [root] provider.aws (close) -->
<g id="node15" class="node">
<title>[root] provider.aws (close)</title>
<ellipse fill="none" stroke="#000000" cx="998" cy="-378" rx="102.8821" ry="18"/>
<text text-anchor="middle" x="998" y="-374.3" font-family="Times,serif" font-size="14.00" fill="#000000">[root] provider.aws (close)</text>
</g>
<!-- [root] provider.aws (close)&#45;&gt;[root] aws_instance.ansible&#45;beats -->
<g id="edge45" class="edge">
<title>[root] provider.aws (close)&#45;&gt;[root] aws_instance.ansible&#45;beats</title>
<path fill="none" stroke="#000000" d="M937.0882,-363.4297C892.6515,-352.8003 831.8317,-338.2521 782.5263,-326.4581"/>
<polygon fill="#000000" stroke="#000000" points="783.0488,-322.9844 772.5089,-324.0619 781.4202,-329.7924 783.0488,-322.9844"/>
</g>
<!-- [root] provider.aws (close)&#45;&gt;[root] aws_instance.ansible&#45;elastic -->
<g id="edge46" class="edge">
<title>[root] provider.aws (close)&#45;&gt;[root] aws_instance.ansible&#45;elastic</title>
<path fill="none" stroke="#000000" d="M997.7851,-359.9819C996.208,-315.6454 985.5656,-200.7461 919,-144 885.6114,-115.5368 774.6336,-101.7356 692.4715,-95.2816"/>
<polygon fill="#000000" stroke="#000000" points="692.5855,-91.7803 682.3488,-94.5119 692.0546,-98.7601 692.5855,-91.7803"/>
</g>
<!-- [root] provider.aws (close)&#45;&gt;[root] aws_instance.ansible&#45;kibana -->
<g id="edge47" class="edge">
<title>[root] provider.aws (close)&#45;&gt;[root] aws_instance.ansible&#45;kibana</title>
<path fill="none" stroke="#000000" d="M962.351,-361.0579C907.7058,-335.0879 803.1811,-285.4128 742.2732,-256.4665"/>
<polygon fill="#000000" stroke="#000000" points="743.4209,-253.1368 732.8866,-252.0055 740.4162,-259.4592 743.4209,-253.1368"/>
</g>
<!-- [root] provider.aws (close)&#45;&gt;[root] aws_instance.ansible&#45;logstash -->
<g id="edge48" class="edge">
<title>[root] provider.aws (close)&#45;&gt;[root] aws_instance.ansible&#45;logstash</title>
<path fill="none" stroke="#000000" d="M985.4717,-359.8822C964.0335,-329.2639 918.4136,-265.759 875,-216 866.488,-206.2438 856.612,-196.073 847.6515,-187.2235"/>
<polygon fill="#000000" stroke="#000000" points="849.9919,-184.6171 840.3899,-180.1389 845.1035,-189.6275 849.9919,-184.6171"/>
</g>
<!-- [root] provider.aws (close)&#45;&gt;[root] provider.aws -->
<g id="edge49" class="edge">
<title>[root] provider.aws (close)&#45;&gt;[root] provider.aws</title>
<path fill="none" stroke="#000000" d="M1087.8659,-369.2151C1152.3406,-361.1088 1231.9119,-346.8149 1256,-324 1286.0562,-295.5325 1280,-275.3978 1280,-234 1280,-234 1280,-234 1280,-162 1280,-120.6022 1280.9045,-105.0688 1256,-72 1243.1179,-54.8949 1223.0977,-42.1148 1205.2074,-33.2934"/>
<polygon fill="#000000" stroke="#000000" points="1206.6369,-30.0982 1196.0951,-29.0393 1203.6757,-36.441 1206.6369,-30.0982"/>
</g>
<!-- [root] provisioner.local&#45;exec (close) -->
<g id="node16" class="node">
<title>[root] provisioner.local&#45;exec (close)</title>
<ellipse fill="none" stroke="#000000" cx="698" cy="-378" rx="135.6761" ry="18"/>
<text text-anchor="middle" x="698" y="-374.3" font-family="Times,serif" font-size="14.00" fill="#000000">[root] provisioner.local&#45;exec (close)</text>
</g>
<!-- [root] provisioner.local&#45;exec (close)&#45;&gt;[root] aws_instance.ansible&#45;beats -->
<g id="edge50" class="edge">
<title>[root] provisioner.local&#45;exec (close)&#45;&gt;[root] aws_instance.ansible&#45;beats</title>
<path fill="none" stroke="#000000" d="M697.7477,-359.8314C697.6407,-352.131 697.5135,-342.9743 697.3947,-334.4166"/>
<polygon fill="#000000" stroke="#000000" points="700.8944,-334.3637 697.2557,-324.4133 693.8951,-334.4609 700.8944,-334.3637"/>
</g>
<!-- [root] provisioner.local&#45;exec (close)&#45;&gt;[root] aws_instance.ansible&#45;elastic -->
<g id="edge51" class="edge">
<title>[root] provisioner.local&#45;exec (close)&#45;&gt;[root] aws_instance.ansible&#45;elastic</title>
<path fill="none" stroke="#000000" d="M667.3847,-360.4591C649.5962,-350.1121 626.8462,-336.6121 607,-324 534.9001,-278.181 523.1934,-256.543 448,-216 411.1667,-196.1401 384.2548,-214.7897 361,-180 352.1085,-166.6981 351.0218,-156.5074 361,-144 370.3211,-132.3162 441.9077,-117.0264 503.9895,-105.6999"/>
<polygon fill="#000000" stroke="#000000" points="504.6419,-109.1388 513.8606,-103.9172 503.3978,-102.2502 504.6419,-109.1388"/>
</g>
<!-- [root] provisioner.local&#45;exec (close)&#45;&gt;[root] aws_instance.ansible&#45;kibana -->
<g id="edge52" class="edge">
<title>[root] provisioner.local&#45;exec (close)&#45;&gt;[root] aws_instance.ansible&#45;kibana</title>
<path fill="none" stroke="#000000" d="M744.1382,-360.9436C760.3529,-352.4597 776.8086,-340.4241 786,-324 793.8137,-310.0377 793.917,-301.904 786,-288 778.6881,-275.1588 766.987,-265.0559 754.3768,-257.2384"/>
<polygon fill="#000000" stroke="#000000" points="755.9622,-254.1132 745.5441,-252.1858 752.4864,-260.1893 755.9622,-254.1132"/>
</g>
<!-- [root] provisioner.local&#45;exec (close)&#45;&gt;[root] aws_instance.ansible&#45;logstash -->
<g id="edge53" class="edge">
<title>[root] provisioner.local&#45;exec (close)&#45;&gt;[root] aws_instance.ansible&#45;logstash</title>
<path fill="none" stroke="#000000" d="M741.3548,-360.8479C782.669,-341.601 841.267,-305.8431 860,-252 865.2576,-236.8885 864.9227,-231.2239 860,-216 856.8312,-206.2001 851.1468,-196.6831 845.0809,-188.4383"/>
<polygon fill="#000000" stroke="#000000" points="847.6471,-186.0398 838.7108,-180.3483 842.1474,-190.3703 847.6471,-186.0398"/>
</g>
<!-- [root] root -->
<g id="node17" class="node">
<title>[root] root</title>
<ellipse fill="none" stroke="#000000" cx="698" cy="-450" rx="47.3916" ry="18"/>
<text text-anchor="middle" x="698" y="-446.3" font-family="Times,serif" font-size="14.00" fill="#000000">[root] root</text>
</g>
<!-- [root] root&#45;&gt;[root] meta.count&#45;boundary (EachMode fixup) -->
<g id="edge54" class="edge">
<title>[root] root&#45;&gt;[root] meta.count&#45;boundary (EachMode fixup)</title>
<path fill="none" stroke="#000000" d="M656.5394,-440.9541C605.6609,-429.8533 518.1133,-410.752 452.7622,-396.4936"/>
<polygon fill="#000000" stroke="#000000" points="453.3976,-393.0499 442.8813,-394.3377 451.9054,-399.889 453.3976,-393.0499"/>
</g>
<!-- [root] root&#45;&gt;[root] provider.aws (close) -->
<g id="edge55" class="edge">
<title>[root] root&#45;&gt;[root] provider.aws (close)</title>
<path fill="none" stroke="#000000" d="M738.148,-440.3645C786.446,-428.773 868.3793,-409.109 927.3437,-394.9575"/>
<polygon fill="#000000" stroke="#000000" points="928.4286,-398.2966 937.3357,-392.5594 926.795,-391.4899 928.4286,-398.2966"/>
</g>
<!-- [root] root&#45;&gt;[root] provisioner.local&#45;exec (close) -->
<g id="edge56" class="edge">
<title>[root] root&#45;&gt;[root] provisioner.local&#45;exec (close)</title>
<path fill="none" stroke="#000000" d="M698,-431.8314C698,-424.131 698,-414.9743 698,-406.4166"/>
<polygon fill="#000000" stroke="#000000" points="701.5001,-406.4132 698,-396.4133 694.5001,-406.4133 701.5001,-406.4132"/>
</g>
</g>
</svg>
